<?xml version="1.0" encoding="UTF-8"?>
<svg xmlns="http://www.w3.org/2000/svg" xmlns:xlink="http://www.w3.org/1999/xlink" width="300px" height="300px" viewBox="0 0 300 300" version="1.1">
<g id="surface460697">
<path style=" stroke:none;fill-rule:nonzero;fill:rgb(92.54902%,94.117647%,94.509804%);fill-opacity:1;" d="M 39 81 C 35.6875 81 33 83.6875 33 87 C 33 90.3125 35.6875 93 39 93 C 42.3125 93 45 90.3125 45 87 C 45 83.6875 42.3125 81 39 81 Z M 39 81 "/>
<path style=" stroke:none;fill-rule:nonzero;fill:rgb(92.54902%,94.117647%,94.509804%);fill-opacity:1;" d="M 231 36 C 229.34375 36 228 37.34375 228 39 C 228 40.65625 229.34375 42 231 42 C 232.65625 42 234 40.65625 234 39 C 234 37.34375 232.65625 36 231 36 Z M 231 36 "/>
<path style=" stroke:none;fill-rule:nonzero;fill:rgb(92.54902%,94.117647%,94.509804%);fill-opacity:1;" d="M 150 39 C 88.695312 39 39 88.695312 39 150 C 39 211.304688 88.695312 261 150 261 C 211.304688 261 261 211.304688 261 150 C 261 88.695312 211.304688 39 150 39 Z M 150 39 "/>
<path style=" stroke:none;fill-rule:nonzero;fill:rgb(92.54902%,94.117647%,94.509804%);fill-opacity:1;" d="M 249 33 C 242.371094 33 237 38.371094 237 45 C 237 51.628906 242.371094 57 249 57 C 255.628906 57 261 51.628906 261 45 C 261 38.371094 255.628906 33 249 33 Z M 249 33 "/>
<path style=" stroke:none;fill-rule:nonzero;fill:rgb(92.54902%,94.117647%,94.509804%);fill-opacity:1;" d="M 261 66 C 257.6875 66 255 68.6875 255 72 C 255 75.3125 257.6875 78 261 78 C 264.3125 78 267 75.3125 267 72 C 267 68.6875 264.3125 66 261 66 Z M 261 66 "/>
<path style=" stroke:none;fill-rule:nonzero;fill:rgb(80%,80%,80%);fill-opacity:1;" d="M 243 222 C 239.6875 222 237 224.6875 237 228 C 237 231.3125 239.6875 234 243 234 C 246.3125 234 249 231.3125 249 228 C 249 224.6875 246.3125 222 243 222 Z M 45 177 C 38.371094 177 33 182.371094 33 189 C 33 195.628906 38.371094 201 45 201 C 51.628906 201 57 195.628906 57 189 C 57 182.371094 51.628906 177 45 177 Z M 45 177 "/>
<path style=" stroke:none;fill-rule:nonzero;fill:rgb(92.54902%,94.117647%,94.509804%);fill-opacity:1;" d="M 75 255 C 71.6875 255 69 257.6875 69 261 C 69 264.3125 71.6875 267 75 267 C 78.3125 267 81 264.3125 81 261 C 81 257.6875 78.3125 255 75 255 Z M 75 255 "/>
<path style=" stroke:none;fill-rule:nonzero;fill:rgb(100%,100%,100%);fill-opacity:1;" d="M 55.5 153 C 51.359375 153 48 156.359375 48 160.5 C 48 164.640625 51.359375 168 55.5 168 C 59.640625 168 63 164.640625 63 160.5 C 63 156.359375 59.640625 153 55.5 153 Z M 55.5 153 "/>
<path style=" stroke:none;fill-rule:nonzero;fill:rgb(92.54902%,94.117647%,94.509804%);fill-opacity:1;" d="M 63 198 C 61.34375 198 60 199.34375 60 201 C 60 202.65625 61.34375 204 63 204 C 64.65625 204 66 202.65625 66 201 C 66 199.34375 64.65625 198 63 198 Z M 63 198 "/>
<path style=" stroke:none;fill-rule:nonzero;fill:rgb(100%,100%,100%);fill-opacity:1;" d="M 240 99 C 238.34375 99 237 100.34375 237 102 C 237 103.65625 238.34375 105 240 105 C 241.65625 105 243 103.65625 243 102 C 243 100.34375 241.65625 99 240 99 Z M 240 99 "/>
<path style=" stroke:none;fill-rule:nonzero;fill:rgb(100%,100%,100%);fill-opacity:1;" d="M 134.617188 180.128906 L 134.617188 174.589844 C 134.617188 156.519531 146.851562 146.4375 157.640625 137.539062 C 166.714844 130.058594 175.292969 122.992188 175.292969 112.386719 C 175.292969 101.363281 166.074219 89.964844 150.648438 89.964844 C 135.636719 89.964844 125.492188 98.605469 123.765625 112.664062 L 101.210938 112.664062 C 103.074219 86.554688 122.390625 70.441406 152.125 70.441406 C 181.433594 70.441406 201.898438 87.265625 201.898438 111.363281 C 201.898438 126.769531 194.78125 138.160156 178.8125 148.300781 C 165.019531 157.054688 162.960938 169.917969 162.960938 176.800781 L 162.960938 180.125 L 134.617188 180.125 Z M 134.617188 180.128906 "/>
<path style=" stroke:none;fill-rule:nonzero;fill:rgb(80%,80%,80%);fill-opacity:1;" d="M 152.125 72.546875 C 180.640625 72.546875 199.800781 88.144531 199.800781 111.367188 C 199.800781 125.976562 192.980469 136.816406 177.683594 146.527344 C 163.042969 155.824219 160.855469 169.484375 160.855469 176.804688 L 160.855469 178.027344 L 136.71875 178.027344 L 136.71875 174.59375 C 136.71875 157.507812 148.035156 148.183594 158.976562 139.164062 C 168.445312 131.359375 177.390625 123.988281 177.390625 112.390625 C 177.390625 100.335938 167.386719 87.871094 150.648438 87.871094 C 135.382812 87.871094 124.492188 96.652344 121.960938 110.574219 L 103.507812 110.574219 C 106.171875 86.667969 124.042969 72.546875 152.125 72.546875 M 152.125 68.347656 C 118.414062 68.347656 99.910156 87.871094 99 114.769531 L 125.675781 114.769531 C 126.585938 100.921875 136.007812 92.066406 150.648438 92.066406 C 164.953125 92.066406 173.191406 102.511719 173.191406 112.386719 C 173.191406 134.082031 132.519531 140.347656 132.519531 174.589844 L 132.519531 182.226562 L 165.058594 182.226562 L 165.058594 176.800781 C 165.058594 167.597656 168.808594 157.132812 179.933594 150.070312 C 195.105469 140.445312 204 128.734375 204 111.367188 C 204 86.28125 183.226562 68.347656 152.125 68.347656 Z M 152.125 68.347656 "/>
<path style=" stroke:none;fill-rule:nonzero;fill:rgb(100%,100%,100%);fill-opacity:1;" d="M 148.789062 234.355469 C 139.480469 234.355469 131.910156 226.785156 131.910156 217.476562 C 131.910156 208.167969 139.480469 200.597656 148.789062 200.597656 C 158.097656 200.597656 165.667969 208.167969 165.667969 217.476562 C 165.667969 226.785156 158.09375 234.355469 148.789062 234.355469 Z M 148.789062 234.355469 "/>
<path style=" stroke:none;fill-rule:nonzero;fill:rgb(80%,80%,80%);fill-opacity:1;" d="M 148.789062 202.699219 C 156.9375 202.699219 163.570312 209.328125 163.570312 217.480469 C 163.570312 225.628906 156.9375 232.261719 148.789062 232.261719 C 140.636719 232.261719 134.007812 225.628906 134.007812 217.480469 C 134.007812 209.328125 140.640625 202.699219 148.789062 202.699219 M 148.789062 198.496094 C 138.304688 198.496094 129.808594 206.996094 129.808594 217.480469 C 129.808594 227.960938 138.304688 236.460938 148.789062 236.460938 C 159.269531 236.460938 167.769531 227.960938 167.769531 217.480469 C 167.769531 206.992188 159.269531 198.496094 148.789062 198.496094 Z M 148.789062 198.496094 "/>
<path style=" stroke:none;fill-rule:nonzero;fill:rgb(80%,80%,80%);fill-opacity:1;" d="M 167.625 82.285156 C 167.496094 82.285156 167.363281 82.269531 167.230469 82.234375 C 162.601562 80.980469 157.519531 80.34375 152.125 80.34375 C 151.296875 80.34375 150.625 79.671875 150.625 78.84375 C 150.625 78.015625 151.296875 77.34375 152.125 77.34375 C 157.785156 77.34375 163.132812 78.015625 168.019531 79.339844 C 168.820312 79.554688 169.289062 80.378906 169.074219 81.175781 C 168.890625 81.847656 168.289062 82.285156 167.625 82.285156 Z M 167.625 82.285156 "/>
<path style=" stroke:none;fill-rule:nonzero;fill:rgb(80%,80%,80%);fill-opacity:1;" d="M 185.546875 92.453125 C 185.148438 92.453125 184.753906 92.296875 184.457031 91.984375 C 182.617188 90.03125 180.433594 88.277344 177.972656 86.769531 C 176.851562 86.082031 175.660156 85.445312 174.445312 84.867188 C 173.695312 84.511719 173.375 83.617188 173.730469 82.867188 C 174.085938 82.117188 174.984375 81.808594 175.726562 82.15625 C 177.042969 82.777344 178.324219 83.46875 179.539062 84.214844 C 182.230469 85.863281 184.613281 87.78125 186.640625 89.925781 C 187.207031 90.527344 187.183594 91.480469 186.578125 92.046875 C 186.289062 92.320312 185.914062 92.453125 185.546875 92.453125 Z M 185.546875 92.453125 "/>
<path style=" stroke:none;fill-rule:nonzero;fill:rgb(80%,80%,80%);fill-opacity:1;" d="M 154.855469 173.230469 C 154.792969 173.230469 154.738281 173.226562 154.675781 173.21875 C 153.855469 173.125 153.265625 172.378906 153.359375 171.554688 C 154.894531 158.441406 162.046875 147.214844 173.503906 139.941406 C 186.46875 131.710938 192 123.167969 192 111.367188 C 192 107.898438 191.4375 104.578125 190.339844 101.503906 C 189.894531 100.261719 189.351562 99.039062 188.722656 97.871094 C 188.328125 97.144531 188.601562 96.230469 189.328125 95.839844 C 190.066406 95.449219 190.96875 95.722656 191.363281 96.445312 C 192.0625 97.75 192.667969 99.109375 193.164062 100.492188 C 194.382812 103.894531 195 107.554688 195 111.367188 C 195 124.320312 189.054688 133.625 175.109375 142.472656 C 164.433594 149.257812 157.765625 159.703125 156.34375 171.902344 C 156.253906 172.667969 155.605469 173.230469 154.855469 173.230469 Z M 154.855469 173.230469 "/>
<path style=" stroke:none;fill-rule:nonzero;fill:rgb(80%,80%,80%);fill-opacity:1;" d="M 148.5 228 C 147.671875 228 147 227.328125 147 226.5 C 147 225.671875 147.671875 225 148.5 225 C 150.257812 225 151.902344 224.410156 153.257812 223.300781 C 155 221.867188 156 219.753906 156 217.5 C 156 213.363281 152.636719 210 148.5 210 C 146.496094 210 144.613281 210.78125 143.195312 212.195312 C 142.609375 212.78125 141.660156 212.78125 141.074219 212.195312 C 140.488281 211.609375 140.488281 210.660156 141.074219 210.074219 C 143.0625 208.09375 145.695312 207 148.5 207 C 154.289062 207 159 211.710938 159 217.5 C 159 220.65625 157.601562 223.609375 155.164062 225.617188 C 153.289062 227.152344 150.925781 228 148.5 228 Z M 148.5 228 "/>
</g>
</svg>
