<?xml version="1.0" encoding="UTF-8"?>
<svg xmlns="http://www.w3.org/2000/svg" xmlns:xlink="http://www.w3.org/1999/xlink" width="300pt" height="300pt" viewBox="0 0 300 300" version="1.1">
<g id="surface1693">
<path style=" stroke:none;fill-rule:nonzero;fill:rgb(100%,40%,40.784314%);fill-opacity:1;" d="M 4.628906 150 C 4.628906 69.726562 69.726562 4.628906 150 4.628906 C 230.273438 4.628906 295.371094 69.726562 295.371094 150 C 295.371094 230.273438 230.273438 295.371094 150 295.371094 C 69.726562 295.371094 4.628906 230.273438 4.628906 150 Z M 4.628906 150 "/>
<path style=" stroke:none;fill-rule:nonzero;fill:rgb(100%,89.019608%,44.705882%);fill-opacity:1;" d="M 255.703125 209.472656 L 155.976562 48.75 C 154.804688 46.875 152.753906 45.761719 150.585938 45.761719 C 148.359375 45.761719 146.308594 46.875 145.195312 48.75 L 45.117188 209.882812 C 43.886719 211.875 43.828125 214.335938 44.941406 216.328125 C 46.054688 218.320312 48.222656 219.609375 50.507812 219.609375 L 250.488281 219.609375 C 254.003906 219.609375 256.875 216.738281 256.875 213.222656 C 256.933594 211.816406 256.464844 210.527344 255.703125 209.472656 Z M 255.703125 209.472656 "/>
<path style=" stroke:none;fill-rule:nonzero;fill:rgb(0%,0%,0%);fill-opacity:1;" d="M 143.144531 153.164062 L 141.09375 122.226562 C 140.683594 116.191406 140.507812 111.855469 140.507812 109.21875 C 140.507812 105.644531 141.445312 102.832031 143.320312 100.839844 C 145.195312 98.847656 147.65625 97.851562 150.703125 97.851562 C 154.394531 97.851562 156.914062 99.140625 158.144531 101.71875 C 159.375 104.296875 160.019531 107.988281 160.019531 112.792969 C 160.019531 115.664062 159.84375 118.535156 159.550781 121.464844 L 156.796875 153.28125 C 156.503906 157.089844 155.859375 159.960938 154.863281 162.011719 C 153.867188 164.0625 152.226562 165.058594 149.941406 165.058594 C 147.597656 165.058594 146.015625 164.0625 145.078125 162.128906 C 144.199219 160.136719 143.554688 157.148438 143.144531 153.164062 Z M 150.351562 195.644531 C 147.714844 195.644531 145.429688 194.824219 143.496094 193.125 C 141.5625 191.425781 140.566406 189.023438 140.566406 185.976562 C 140.566406 183.28125 141.503906 181.054688 143.378906 179.179688 C 145.253906 177.304688 147.539062 176.367188 150.234375 176.367188 C 152.929688 176.367188 155.273438 177.304688 157.207031 179.179688 C 159.140625 181.054688 160.078125 183.339844 160.078125 185.976562 C 160.078125 188.964844 159.082031 191.367188 157.148438 193.066406 C 155.15625 194.824219 152.929688 195.644531 150.351562 195.644531 Z M 150.351562 195.644531 "/>
</g>
</svg>
