<svg xmlns="http://www.w3.org/2000/svg" viewBox="0 0 100 100" width="120px" height="120px"><path fill="#c7ede6" d="M87.215,56.71C88.35,54.555,89,52.105,89,49.5c0-6.621-4.159-12.257-10.001-14.478 C78.999,35.015,79,35.008,79,35c0-11.598-9.402-21-21-21c-9.784,0-17.981,6.701-20.313,15.757C36.211,29.272,34.638,29,33,29 c-7.692,0-14.023,5.793-14.89,13.252C12.906,43.353,9,47.969,9,53.5C9,59.851,14.149,65,20.5,65c0.177,0,0.352-0.012,0.526-0.022 C21.022,65.153,21,65.324,21,65.5C21,76.822,30.178,86,41.5,86c6.437,0,12.175-2.972,15.934-7.614C59.612,80.611,62.64,82,66,82 c4.65,0,8.674-2.65,10.666-6.518C77.718,75.817,78.837,76,80,76c6.075,0,11-4.925,11-11C91,61.689,89.53,58.727,87.215,56.71z"/><path fill="#fdfcef" d="M76.5,59.5V60h3v-0.5c0,0,4.242,0,5.5,0c2.485,0,4.5-2.015,4.5-4.5 c0-2.333-1.782-4.229-4.055-4.455C85.467,50.364,85.5,50.187,85.5,50c0-2.485-2.015-4.5-4.5-4.5c-1.438,0-2.703,0.686-3.527,1.736 C77.333,44.6,75.171,42.5,72.5,42.5c-2.761,0-5,2.239-5,5c0,0.446,0.077,0.87,0.187,1.282C67.045,48.005,66.086,47.5,65,47.5 c-1.781,0-3.234,1.335-3.455,3.055C61.364,50.533,61.187,50.5,61,50.5c-2.485,0-4.5,2.015-4.5,4.5s2.015,4.5,4.5,4.5s9.5,0,9.5,0 H76.5z"/><path fill="#472b29" d="M72.5,42c-3.033,0-5.5,2.467-5.5,5.5c0,0.016,0,0.031,0,0.047C66.398,47.192,65.71,47,65,47 c-1.831,0-3.411,1.261-3.858,3.005C61.095,50.002,61.048,50,61,50c-2.757,0-5,2.243-5,5s2.243,5,5,5h15.5 c0.276,0,0.5-0.224,0.5-0.5S76.776,59,76.5,59H61c-2.206,0-4-1.794-4-4s1.794-4,4-4c0.117,0,0.23,0.017,0.343,0.032l0.141,0.019 c0.021,0.003,0.041,0.004,0.062,0.004c0.246,0,0.462-0.185,0.495-0.437C62.232,49.125,63.504,48,65,48 c0.885,0,1.723,0.401,2.301,1.1c0.098,0.118,0.241,0.182,0.386,0.182c0.078,0,0.156-0.018,0.228-0.056 c0.209-0.107,0.314-0.346,0.254-0.573C68.054,48.218,68,47.852,68,47.5c0-2.481,2.019-4.5,4.5-4.5 c2.381,0,4.347,1.872,4.474,4.263c0.011,0.208,0.15,0.387,0.349,0.45c0.05,0.016,0.101,0.024,0.152,0.024 c0.15,0,0.296-0.069,0.392-0.192C78.638,46.563,79.779,46,81,46c2.206,0,4,1.794,4,4c0,0.117-0.017,0.23-0.032,0.343l-0.019,0.141 c-0.016,0.134,0.022,0.268,0.106,0.373c0.084,0.105,0.207,0.172,0.34,0.185C87.451,51.247,89,52.949,89,55c0,2.206-1.794,4-4,4 h-5.5c-0.276,0-0.5,0.224-0.5,0.5s0.224,0.5,0.5,0.5H85c2.757,0,5-2.243,5-5c0-2.397-1.689-4.413-4.003-4.877 C85.999,50.082,86,50.041,86,50c0-2.757-2.243-5-5-5c-1.176,0-2.293,0.416-3.183,1.164C77.219,43.76,75.055,42,72.5,42L72.5,42z"/><path fill="#472b29" d="M71 49c-1.403 0-2.609.999-2.913 2.341C67.72 51.119 67.301 51 66.875 51c-1.202 0-2.198.897-2.353 2.068C64.319 53.022 64.126 53 63.937 53c-1.529 0-2.811 1.2-2.918 2.732C61.01 55.87 61.114 55.99 61.251 56c.006 0 .012 0 .018 0 .13 0 .24-.101.249-.232.089-1.271 1.151-2.268 2.419-2.268.229 0 .47.042.738.127.022.007.045.01.067.01.055 0 .11-.02.156-.054C64.962 53.537 65 53.455 65 53.375c0-1.034.841-1.875 1.875-1.875.447 0 .885.168 1.231.473.047.041.106.063.165.063.032 0 .063-.006.093-.019.088-.035.148-.117.155-.212C68.623 50.512 69.712 49.5 71 49.5c.208 0 .425.034.682.107.023.007.047.01.07.01.109 0 .207-.073.239-.182.038-.133-.039-.271-.172-.309C71.517 49.04 71.256 49 71 49L71 49zM84.883 50.5c-1.326 0-2.508.897-2.874 2.182-.038.133.039.271.172.309C82.205 52.997 82.228 53 82.25 53c.109 0 .209-.072.24-.182C82.795 51.748 83.779 51 84.883 51c.117 0 .23.014.342.029.012.002.023.003.035.003.121 0 .229-.092.246-.217.019-.137-.077-.263-.214-.281C85.158 50.516 85.022 50.5 84.883 50.5L84.883 50.5z"/><path fill="#fff" d="M15.5 51h-10C5.224 51 5 50.776 5 50.5S5.224 50 5.5 50h10c.276 0 .5.224.5.5S15.777 51 15.5 51zM18.5 51h-1c-.276 0-.5-.224-.5-.5s.224-.5.5-.5h1c.276 0 .5.224.5.5S18.777 51 18.5 51zM23.491 53H14.5c-.276 0-.5-.224-.5-.5s.224-.5.5-.5h8.991c.276 0 .5.224.5.5S23.767 53 23.491 53zM12.5 53h-1c-.276 0-.5-.224-.5-.5s.224-.5.5-.5h1c.276 0 .5.224.5.5S12.777 53 12.5 53zM9.5 53h-2C7.224 53 7 52.776 7 52.5S7.224 52 7.5 52h2c.276 0 .5.224.5.5S9.777 53 9.5 53zM15.5 55h-2c-.276 0-.5-.224-.5-.5s.224-.5.5-.5h2c.276 0 .5.224.5.5S15.776 55 15.5 55zM18.5 46c-.177 0-.823 0-1 0-.276 0-.5.224-.5.5 0 .276.224.5.5.5.177 0 .823 0 1 0 .276 0 .5-.224.5-.5C19 46.224 18.776 46 18.5 46zM18.5 48c-.177 0-4.823 0-5 0-.276 0-.5.224-.5.5 0 .276.224.5.5.5.177 0 4.823 0 5 0 .276 0 .5-.224.5-.5C19 48.224 18.776 48 18.5 48zM23.5 50c-.177 0-2.823 0-3 0-.276 0-.5.224-.5.5 0 .276.224.5.5.5.177 0 2.823 0 3 0 .276 0 .5-.224.5-.5C24 50.224 23.776 50 23.5 50zM72.5 24h-10c-.276 0-.5-.224-.5-.5s.224-.5.5-.5h10c.276 0 .5.224.5.5S72.776 24 72.5 24zM76.5 24h-2c-.276 0-.5-.224-.5-.5s.224-.5.5-.5h2c.276 0 .5.224.5.5S76.776 24 76.5 24zM81.5 26h-10c-.276 0-.5-.224-.5-.5s.224-.5.5-.5h10c.276 0 .5.224.5.5S81.777 26 81.5 26zM69.5 26h-1c-.276 0-.5-.224-.5-.5s.224-.5.5-.5h1c.276 0 .5.224.5.5S69.776 26 69.5 26zM66.47 26H64.5c-.276 0-.5-.224-.5-.5s.224-.5.5-.5h1.97c.276 0 .5.224.5.5S66.746 26 66.47 26zM75.5 22h-5c-.276 0-.5-.224-.5-.5s.224-.5.5-.5h5c.276 0 .5.224.5.5S75.777 22 75.5 22zM72.5 28h-2c-.276 0-.5-.224-.5-.5s.224-.5.5-.5h2c.276 0 .5.224.5.5S72.776 28 72.5 28z"/><g><path fill="#fde751" d="M48.218,35.217c-0.935-5.585-9.985-9.169-11.631-2.929c-1.462,8.552,11.631,6.495,11.631,6.495 V35.217z"/><path fill="#472b29" d="M45.034,39.703c-2.523,0-5.882-0.412-7.785-2.343c-1.267-1.282-1.721-3.029-1.352-5.19 c0.682-2.595,2.525-3.978,5.105-3.863c3.294,0.151,7.257,2.918,7.906,6.796l0.01,0.115v4.164l-0.592,0.093 C48.195,39.495,46.825,39.703,45.034,39.703z M40.707,29.699c-1.289,0-2.848,0.512-3.442,2.768c-0.28,1.654,0.036,2.954,0.98,3.911 c2.286,2.315,7.515,1.976,9.273,1.788v-2.888c-0.56-3.135-3.904-5.45-6.58-5.573C40.862,29.701,40.785,29.699,40.707,29.699z"/></g><g><path fill="#fde751" d="M52.894,35.217c0.935-5.585,9.985-9.169,11.631-2.929c1.462,8.552-11.631,6.495-11.631,6.495V35.217 z"/><path fill="#472b29" d="M56.078,39.703c-1.79,0-3.16-0.208-3.292-0.229l-0.592-0.093l0.01-4.279 c0.648-3.877,4.611-6.645,7.904-6.796c2.555-0.133,4.425,1.268,5.093,3.803c0.383,2.222-0.071,3.969-1.338,5.252 C61.96,39.29,58.602,39.703,56.078,39.703z M53.595,38.165c1.764,0.189,6.994,0.524,9.273-1.788 c0.943-0.957,1.26-2.256,0.966-3.971c-0.617-2.333-2.324-2.774-3.661-2.701c-2.676,0.123-6.02,2.438-6.578,5.572V38.165z"/></g><g><path fill="#ea5167" d="M36.338,74.3c-3.66,0-6.638-2.978-6.638-6.638V46.338c0-3.66,2.978-6.638,6.638-6.638h28.324 c3.66,0,6.638,2.978,6.638,6.638v21.324c0,3.66-2.978,6.638-6.638,6.638H36.338z"/><path fill="#472b29" d="M64.662,40.4c3.274,0,5.938,2.664,5.938,5.938v21.324c0,3.274-2.664,5.938-5.938,5.938H36.338 c-3.274,0-5.938-2.664-5.938-5.938V46.338c0-3.274,2.664-5.938,5.938-5.938H64.662 M64.662,39H36.338 C32.302,39,29,42.302,29,46.338v21.324C29,71.698,32.302,75,36.338,75h28.324C68.698,75,72,71.698,72,67.662V46.338 C72,42.302,68.698,39,64.662,39L64.662,39z"/></g><g><path fill="#fde751" d="M50.114,42.439c-1.433,0-2.599-1.165-2.599-2.598v-2.544c0-1.433,1.166-2.598,2.599-2.598h0.885 c1.433,0,2.598,1.165,2.598,2.598v2.544c0,1.433-1.165,2.598-2.598,2.598H50.114z"/><path fill="#472b29" d="M50.999,35.4c1.047,0,1.898,0.852,1.898,1.898v2.543c0,1.047-0.852,1.898-1.898,1.898h-0.885 c-1.047,0-1.898-0.852-1.898-1.898v-2.543c0-1.047,0.852-1.898,1.898-1.898H50.999 M50.999,34h-0.885 c-1.814,0-3.298,1.484-3.298,3.298v2.543c0,1.814,1.484,3.298,3.298,3.298h0.885c1.814,0,3.298-1.484,3.298-3.298v-2.543 C54.297,35.484,52.813,34,50.999,34L50.999,34z"/></g><g><path fill="#ea5167" d="M29.803,50.3c-0.608,0-1.103-0.494-1.103-1.103v-3.986c0-3.59,2.921-6.511,6.511-6.511h30.578 c3.59,0,6.511,2.921,6.511,6.511v3.986c0,0.608-0.494,1.103-1.103,1.103H29.803z"/><path fill="#472b29" d="M65.789,39.4c3.204,0,5.811,2.607,5.811,5.811v3.986c0,0.222-0.181,0.403-0.403,0.403H29.803 c-0.222,0-0.403-0.181-0.403-0.403v-3.986c0-3.204,2.607-5.811,5.811-5.811H65.789 M65.789,38H35.211 C31.229,38,28,41.229,28,45.211v3.986C28,50.193,28.807,51,29.803,51h41.394C72.193,51,73,50.193,73,49.197v-3.986 C73,41.229,69.771,38,65.789,38L65.789,38z"/></g><g><path fill="#fde751" d="M59.505,32.12c0.782-0.198,1.61-0.162,2.429,0.284"/><path fill="#472b29" d="M61.934,32.654c-0.041,0-0.082-0.01-0.12-0.03c-0.69-0.377-1.445-0.467-2.247-0.262 c-0.136,0.028-0.271-0.047-0.304-0.181c-0.034-0.134,0.047-0.27,0.181-0.304c0.927-0.234,1.806-0.131,2.61,0.307 c0.121,0.066,0.165,0.218,0.1,0.34C62.107,32.607,62.021,32.654,61.934,32.654z"/></g><g><path fill="#fde751" d="M55.232,35.406c0,0,1.084-1.515,2.615-2.522"/><path fill="#472b29" d="M55.232,35.656c-0.051,0-0.102-0.016-0.146-0.047c-0.112-0.08-0.138-0.236-0.058-0.349 c0.045-0.063,1.128-1.564,2.681-2.586c0.115-0.074,0.271-0.043,0.347,0.071c0.076,0.115,0.044,0.271-0.071,0.347 c-1.474,0.969-2.539,2.444-2.55,2.459C55.387,35.62,55.311,35.656,55.232,35.656z"/></g><g><path fill="#fde751" d="M39.218,32.052c0,0,3.799-0.955,6.371,3.375"/><path fill="#472b29" d="M45.588,35.677c-0.085,0-0.168-0.044-0.215-0.122c-2.448-4.125-6.059-3.269-6.095-3.261 c-0.142,0.037-0.27-0.048-0.303-0.182c-0.034-0.134,0.047-0.27,0.182-0.303c0.039-0.011,4.009-0.95,6.646,3.489 c0.07,0.119,0.031,0.272-0.087,0.343C45.676,35.665,45.632,35.677,45.588,35.677z"/></g><g><path fill="#472b29" d="M62.938,71H49.5c-0.276,0-0.5-0.224-0.5-0.5s0.224-0.5,0.5-0.5h13.438 C65.178,70,67,68.178,67,65.938V63.5c0-0.276,0.224-0.5,0.5-0.5s0.5,0.224,0.5,0.5v2.438C68,68.729,65.729,71,62.938,71z"/></g><g><path fill="#472b29" d="M67.5,61c-0.276,0-0.5-0.224-0.5-0.5v-6c0-0.276,0.224-0.5,0.5-0.5s0.5,0.224,0.5,0.5v6 C68,60.776,67.776,61,67.5,61z"/></g><g><path fill="#472b29" d="M44.5,71h-6.438C35.271,71,33,68.729,33,65.938V63.5c0-0.276,0.224-0.5,0.5-0.5s0.5,0.224,0.5,0.5 v2.438C34,68.178,35.822,70,38.062,70H44.5c0.276,0,0.5,0.224,0.5,0.5S44.776,71,44.5,71z"/></g><g><path fill="#472b29" d="M33.256,61.94c-0.276,0-0.5-0.224-0.5-0.5v-3.741c0-0.276,0.224-0.5,0.5-0.5s0.5,0.224,0.5,0.5 v3.741C33.756,61.717,33.532,61.94,33.256,61.94z"/></g><g><path fill="#472b29" d="M33.5,56c-0.276,0-0.5-0.224-0.5-0.5v-2c0-0.276,0.224-0.5,0.5-0.5s0.5,0.224,0.5,0.5v2 C34,55.776,33.776,56,33.5,56z"/></g><g><path fill="#fde751" d="M46.7 39.7H54.300000000000004V74.30000000000001H46.7z"/><path fill="#472b29" d="M53.6,40.4v33.2h-6.2V40.4H53.6 M55,39h-9v36h9V39L55,39z"/></g><g><path fill="#472b29" d="M51.5,46.75c-0.138,0-0.25-0.112-0.25-0.25v-5c0-0.138,0.112-0.25,0.25-0.25s0.25,0.112,0.25,0.25v5 C51.75,46.638,51.638,46.75,51.5,46.75z"/></g><g><path fill="#472b29" d="M51.5,70.75c-0.138,0-0.25-0.112-0.25-0.25v-21c0-0.138,0.112-0.25,0.25-0.25s0.25,0.112,0.25,0.25 v21C51.75,70.638,51.638,70.75,51.5,70.75z"/></g><g><path fill="#fdfcef" d="M34.5,67.5c0,0,1.567,0,3.5,0s3.5-1.567,3.5-3.5c0-1.781-1.335-3.234-3.055-3.455 C38.473,60.366,38.5,60.187,38.5,60c0-1.933-1.567-3.5-3.5-3.5c-1.032,0-1.95,0.455-2.59,1.165 c-0.384-1.808-1.987-3.165-3.91-3.165c-2.209,0-4,1.791-4,4c0,0.191,0.03,0.374,0.056,0.558C24.128,58.714,23.592,58.5,23,58.5 c-1.228,0-2.245,0.887-2.455,2.055C20.366,60.527,20.187,60.5,20,60.5c-1.933,0-3.5,1.567-3.5,3.5s1.567,3.5,3.5,3.5s7.5,0,7.5,0 V68h7V67.5z"/><path fill="#472b29" d="M36.25 63C36.112 63 36 62.888 36 62.75c0-1.223.995-2.218 2.218-2.218.034.009.737-.001 1.244.136.133.036.212.173.176.306-.036.134-.173.213-.306.176-.444-.12-1.1-.12-1.113-.118-.948 0-1.719.771-1.719 1.718C36.5 62.888 36.388 63 36.25 63zM29.5 67A.5.5 0 1 0 29.5 68 .5.5 0 1 0 29.5 67z"/><path fill="#472b29" d="M38,68h-3.5c-0.276,0-0.5-0.224-0.5-0.5s0.224-0.5,0.5-0.5H38c1.654,0,3-1.346,3-3 c0-1.496-1.125-2.768-2.618-2.959c-0.134-0.018-0.255-0.088-0.336-0.196s-0.115-0.244-0.094-0.377C37.975,60.314,38,60.16,38,60 c0-1.654-1.346-3-3-3c-0.85,0-1.638,0.355-2.219,1c-0.125,0.139-0.321,0.198-0.5,0.148c-0.182-0.049-0.321-0.195-0.36-0.379 C31.58,56.165,30.141,55,28.5,55c-1.93,0-3.5,1.57-3.5,3.5c0,0.143,0.021,0.28,0.041,0.418c0.029,0.203-0.063,0.438-0.242,0.54 c-0.179,0.102-0.396,0.118-0.556-0.01C23.878,59.155,23.449,59,23,59c-0.966,0-1.792,0.691-1.963,1.644 c-0.048,0.267-0.296,0.446-0.569,0.405C20.314,61.025,20.16,61,20,61c-1.654,0-3,1.346-3,3s1.346,3,3,3h7.5 c0.276,0,0.5,0.224,0.5,0.5S27.776,68,27.5,68H20c-2.206,0-4-1.794-4-4s1.794-4,4-4c0.059,0,0.116,0.002,0.174,0.006 C20.588,58.82,21.711,58,23,58c0.349,0,0.689,0.061,1.011,0.18C24.176,55.847,26.126,54,28.5,54c1.831,0,3.466,1.127,4.153,2.774 C33.333,56.276,34.155,56,35,56c2.206,0,4,1.794,4,4c0,0.048-0.001,0.095-0.004,0.142C40.739,60.59,42,62.169,42,64 C42,66.206,40.206,68,38,68z"/><path fill="#472b29" d="M32.5,67c-0.159,0-0.841,0-1,0c-0.276,0-0.5,0.224-0.5,0.5c0,0.276,0.224,0.5,0.5,0.5 c0.159,0,0.841,0,1,0c0.276,0,0.5-0.224,0.5-0.5C33,67.224,32.776,67,32.5,67z"/></g></svg>