<?xml version="1.0" encoding="UTF-8"?>
<svg xmlns="http://www.w3.org/2000/svg" xmlns:xlink="http://www.w3.org/1999/xlink" width="250pt" height="250pt" viewBox="0 0 250 250" version="1.1">
<g id="surface276671">
<path style=" stroke:none;fill-rule:nonzero;fill:rgb(92.54902%,94.117647%,94.509804%);fill-opacity:1;" d="M 208.332031 213.542969 L 41.667969 213.542969 C 30.160156 213.542969 20.832031 204.214844 20.832031 192.707031 L 20.832031 57.292969 C 20.832031 45.785156 30.160156 36.457031 41.667969 36.457031 L 208.332031 36.457031 C 219.839844 36.457031 229.167969 45.785156 229.167969 57.292969 L 229.167969 192.707031 C 229.167969 204.214844 219.839844 213.542969 208.332031 213.542969 "/>
<path style=" stroke:none;fill-rule:nonzero;fill:rgb(100%,97.254902%,88.235294%);fill-opacity:1;" d="M 166.667969 83.332031 C 166.667969 91.964844 173.660156 98.957031 182.292969 98.957031 C 190.921875 98.957031 197.917969 91.964844 197.917969 83.332031 C 197.917969 74.703125 190.921875 67.707031 182.292969 67.707031 C 173.660156 67.707031 166.667969 74.703125 166.667969 83.332031 "/>
<path style=" stroke:none;fill-rule:nonzero;fill:rgb(80%,80%,80%);fill-opacity:1;" d="M 104.167969 83.332031 L 46.875 166.667969 L 161.457031 166.667969 Z M 104.167969 83.332031 "/>
<path style=" stroke:none;fill-rule:nonzero;fill:rgb(40%,40%,40%);fill-opacity:1;" d="M 161.457031 114.582031 L 119.792969 166.667969 L 203.125 166.667969 Z M 161.457031 114.582031 "/>
</g>
</svg>
