<?xml version="1.0" encoding="UTF-8"?>
<svg xmlns="http://www.w3.org/2000/svg" xmlns:xlink="http://www.w3.org/1999/xlink" width="300px" height="300px" viewBox="0 0 300 300" version="1.1">
<g id="surface427894">
<path style=" stroke:none;fill-rule:nonzero;fill:rgb(92.54902%,94.117647%,94.509804%);fill-opacity:1;" d="M 39 81 C 35.6875 81 33 83.6875 33 87 C 33 90.3125 35.6875 93 39 93 C 42.3125 93 45 90.3125 45 87 C 45 83.6875 42.3125 81 39 81 Z M 39 81 "/>
<path style=" stroke:none;fill-rule:nonzero;fill:rgb(92.54902%,94.117647%,94.509804%);fill-opacity:1;" d="M 231 36 C 229.34375 36 228 37.34375 228 39 C 228 40.65625 229.34375 42 231 42 C 232.65625 42 234 40.65625 234 39 C 234 37.34375 232.65625 36 231 36 Z M 231 36 "/>
<path style=" stroke:none;fill-rule:nonzero;fill:rgb(92.54902%,94.117647%,94.509804%);fill-opacity:1;" d="M 150 39 C 88.695312 39 39 88.695312 39 150 C 39 211.304688 88.695312 261 150 261 C 211.304688 261 261 211.304688 261 150 C 261 88.695312 211.304688 39 150 39 Z M 150 39 "/>
<path style=" stroke:none;fill-rule:nonzero;fill:rgb(92.54902%,94.117647%,94.509804%);fill-opacity:1;" d="M 249 33 C 242.371094 33 237 38.371094 237 45 C 237 51.628906 242.371094 57 249 57 C 255.628906 57 261 51.628906 261 45 C 261 38.371094 255.628906 33 249 33 Z M 249 33 "/>
<path style=" stroke:none;fill-rule:nonzero;fill:rgb(92.54902%,94.117647%,94.509804%);fill-opacity:1;" d="M 261 66 C 257.6875 66 255 68.6875 255 72 C 255 75.3125 257.6875 78 261 78 C 264.3125 78 267 75.3125 267 72 C 267 68.6875 264.3125 66 261 66 Z M 261 66 "/>
<path style=" stroke:none;fill-rule:nonzero;fill:rgb(92.54902%,94.117647%,94.509804%);fill-opacity:1;" d="M 243 222 C 239.6875 222 237 224.6875 237 228 C 237 231.3125 239.6875 234 243 234 C 246.3125 234 249 231.3125 249 228 C 249 224.6875 246.3125 222 243 222 Z M 45 177 C 38.371094 177 33 182.371094 33 189 C 33 195.628906 38.371094 201 45 201 C 51.628906 201 57 195.628906 57 189 C 57 182.371094 51.628906 177 45 177 Z M 45 177 "/>
<path style=" stroke:none;fill-rule:nonzero;fill:rgb(92.54902%,94.117647%,94.509804%);fill-opacity:1;" d="M 75 255 C 71.6875 255 69 257.6875 69 261 C 69 264.3125 71.6875 267 75 267 C 78.3125 267 81 264.3125 81 261 C 81 257.6875 78.3125 255 75 255 Z M 75 255 "/>
<path style=" stroke:none;fill-rule:nonzero;fill:rgb(100%,100%,100%);fill-opacity:1;" d="M 55.5 153 C 51.359375 153 48 156.359375 48 160.5 C 48 164.640625 51.359375 168 55.5 168 C 59.640625 168 63 164.640625 63 160.5 C 63 156.359375 59.640625 153 55.5 153 Z M 55.5 153 "/>
<path style=" stroke:none;fill-rule:nonzero;fill:rgb(92.54902%,94.117647%,94.509804%);fill-opacity:1;" d="M 63 198 C 61.34375 198 60 199.34375 60 201 C 60 202.65625 61.34375 204 63 204 C 64.65625 204 66 202.65625 66 201 C 66 199.34375 64.65625 198 63 198 Z M 63 198 "/>
<path style=" stroke:none;fill-rule:nonzero;fill:rgb(100%,100%,100%);fill-opacity:1;" d="M 240 99 C 238.34375 99 237 100.34375 237 102 C 237 103.65625 238.34375 105 240 105 C 241.65625 105 243 103.65625 243 102 C 243 100.34375 241.65625 99 240 99 Z M 240 99 "/>
<path style=" stroke:none;fill-rule:nonzero;fill:rgb(92.54902%,94.117647%,94.509804%);fill-opacity:1;" d="M 150.964844 216.652344 C 141.5625 216.652344 132.40625 214.691406 123.753906 210.832031 C 90.070312 195.808594 74.894531 156.183594 89.917969 122.503906 C 100.664062 98.417969 124.65625 82.851562 151.039062 82.851562 C 160.4375 82.851562 169.59375 84.808594 178.246094 88.671875 C 194.5625 95.945312 207.070312 109.140625 213.460938 125.824219 C 219.847656 142.507812 219.359375 160.683594 212.085938 177 C 201.335938 201.085938 177.34375 216.652344 150.964844 216.652344 Z M 150.964844 216.652344 "/>
<path style=" stroke:none;fill-rule:nonzero;fill:rgb(80%,80%,80%);fill-opacity:1;" d="M 151.042969 80.75 L 151.042969 84.949219 C 160.144531 84.949219 169.007812 86.847656 177.394531 90.589844 C 193.195312 97.636719 205.308594 110.417969 211.496094 126.578125 C 217.6875 142.738281 217.210938 160.339844 210.164062 176.144531 C 199.757812 199.476562 176.519531 214.554688 150.964844 214.554688 C 141.859375 214.554688 132.996094 212.65625 124.609375 208.917969 C 108.808594 201.867188 96.695312 189.085938 90.507812 172.925781 C 84.316406 156.769531 84.792969 139.164062 91.839844 123.359375 C 102.246094 100.027344 125.484375 84.953125 151.039062 84.949219 L 151.042969 80.75 M 151.039062 80.75 C 124.644531 80.75 99.445312 95.984375 88 121.648438 C 72.480469 156.441406 88.101562 197.230469 122.894531 212.746094 C 132.027344 216.820312 141.566406 218.746094 150.960938 218.746094 C 177.355469 218.746094 202.550781 203.515625 214 177.851562 C 229.519531 143.058594 213.898438 102.269531 179.101562 86.75 C 169.972656 82.675781 160.429688 80.746094 151.039062 80.75 Z M 151.039062 80.75 "/>
<path style=" stroke:none;fill-rule:nonzero;fill:rgb(80%,80%,80%);fill-opacity:1;" d="M 88.882812 143.804688 C 88.777344 143.285156 89.03125 142.042969 89.230469 141.046875 C 89.429688 140.0625 89.617188 139.136719 89.617188 138.429688 C 89.617188 137.746094 90.628906 136.195312 91.296875 135.160156 C 91.804688 134.382812 92.242188 133.703125 92.445312 133.191406 C 92.75 132.414062 93.933594 130.597656 94.976562 129.003906 C 95.433594 128.304688 95.871094 127.632812 96.226562 127.0625 C 96.527344 126.574219 97.160156 125.558594 96.511719 124.898438 C 96.304688 124.683594 96.058594 124.617188 95.773438 124.601562 C 95.859375 124.519531 95.929688 124.457031 95.992188 124.414062 C 96.714844 123.933594 100.816406 121.039062 100.925781 120.949219 C 101 120.871094 102.761719 119.042969 100.824219 115.429688 C 100.128906 114.148438 100.316406 113.800781 100.558594 113.359375 C 100.71875 113.066406 100.921875 112.703125 100.921875 112.203125 C 100.921875 111.867188 100.703125 111.5625 100.386719 111.449219 C 100.34375 111.433594 100.117188 111.355469 99.796875 111.3125 C 99.511719 111.277344 99.21875 111.394531 99.046875 111.632812 C 91.15625 122.335938 86.816406 135.003906 86.496094 148.261719 C 86.488281 148.648438 86.753906 148.984375 87.128906 149.0625 C 87.183594 149.074219 87.238281 149.082031 87.296875 149.082031 C 87.617188 149.082031 87.910156 148.890625 88.039062 148.589844 C 88.46875 147.5625 89.097656 144.90625 88.882812 143.804688 Z M 112.296875 181.648438 C 111.839844 181.558594 110.9375 180.898438 110.277344 180.417969 C 109.242188 179.660156 108.628906 179.230469 108.046875 179.230469 C 107.546875 179.230469 106.496094 178.839844 105.851562 178.410156 C 105.585938 178.226562 105.234375 178.050781 104.859375 177.859375 C 104.339844 177.597656 103.632812 177.246094 103.429688 176.941406 C 103.113281 176.472656 102.332031 175.246094 101.820312 173.953125 L 101.632812 173.449219 C 101.3125 172.570312 101.125 172.171875 99.507812 170.359375 L 99.195312 170.011719 C 97.886719 168.535156 97.808594 168.445312 96.957031 168.042969 L 96.382812 167.761719 C 95.746094 167.445312 95.308594 167.128906 94.886719 166.820312 C 94.40625 166.472656 93.910156 166.105469 93.195312 165.820312 C 92.089844 165.367188 91.628906 165.019531 90.777344 164.28125 C 90.128906 163.710938 89.570312 163.378906 89.0625 163.246094 C 88.789062 163.1875 88.507812 163.257812 88.308594 163.449219 C 88.109375 163.644531 88.027344 163.925781 88.085938 164.199219 C 90.957031 176.777344 97.507812 188.128906 107.035156 197.03125 C 107.128906 197.121094 107.25 197.1875 107.375 197.222656 C 107.632812 197.289062 107.855469 197.3125 108.058594 197.3125 C 108.503906 197.3125 108.84375 197.191406 109.109375 197.089844 C 109.339844 197.007812 109.507812 196.945312 109.738281 196.945312 C 110.917969 196.945312 112.371094 195.789062 112.652344 195.554688 C 112.90625 195.34375 113.003906 194.996094 112.898438 194.6875 L 112.011719 192.03125 L 112.90625 188.695312 L 114.09375 185.359375 C 114.125 185.273438 114.140625 185.179688 114.140625 185.089844 C 114.144531 184.777344 114.09375 182.015625 112.296875 181.648438 Z M 126.574219 93.046875 C 126.800781 93.046875 127.015625 92.953125 127.164062 92.785156 C 127.164062 92.785156 128.09375 91.777344 128.863281 90.796875 C 129.085938 90.511719 129.089844 90.113281 128.875 89.824219 C 128.664062 89.535156 128.28125 89.433594 127.941406 89.554688 C 120.296875 92.496094 113.351562 96.820312 107.304688 102.398438 C 107.21875 102.480469 107.148438 102.582031 107.105469 102.691406 C 106.980469 103.003906 106.871094 103.296875 106.789062 103.589844 C 106.675781 104.058594 106.789062 104.488281 107.109375 104.773438 C 107.625 105.238281 108.492188 105.117188 109.222656 104.886719 L 111.089844 105.71875 C 111.191406 105.769531 111.304688 105.785156 111.417969 105.785156 C 111.511719 105.785156 111.601562 105.769531 111.691406 105.738281 L 114.339844 104.777344 C 114.53125 104.710938 114.6875 104.566406 114.78125 104.386719 C 114.785156 104.371094 115.449219 103.09375 116.9375 102.03125 C 118.195312 101.128906 118.511719 100.6875 118.882812 100.058594 C 118.984375 99.886719 119.101562 99.691406 119.28125 99.453125 C 119.597656 99.027344 119.597656 99.027344 119.863281 98.761719 C 120.164062 98.457031 120.769531 97.851562 122.347656 96.15625 C 125.101562 93.195312 126.589844 93.046875 126.574219 93.046875 Z M 195.480469 175.867188 C 195.164062 175.855469 194.832031 175.996094 194.675781 176.285156 L 192.878906 179.648438 C 191.800781 180.121094 189.835938 181.128906 189.546875 182.242188 C 189.339844 183.082031 189.128906 184.253906 189.070312 184.609375 C 188.828125 185.140625 187.867188 187.316406 187.621094 188.257812 C 187.375 189.234375 187.65625 190.894531 188.386719 191.570312 C 188.636719 191.800781 188.929688 191.921875 189.238281 191.921875 C 189.367188 191.921875 189.492188 191.902344 189.617188 191.859375 C 190.214844 191.660156 190.84375 191.054688 191.515625 190.421875 C 191.859375 190.089844 192.1875 189.769531 192.449219 189.597656 C 193.378906 188.976562 194.660156 186.871094 194.941406 185.757812 C 195.089844 185.171875 195.324219 184.3125 195.539062 183.519531 L 195.90625 182.164062 C 195.90625 182.160156 195.90625 182.15625 195.910156 182.152344 C 196.15625 181.15625 196.414062 179.175781 196.429688 178.351562 C 196.429688 177.546875 196.179688 176.515625 196.164062 176.472656 C 196.078125 176.144531 195.808594 175.90625 195.480469 175.867188 Z M 195.480469 175.867188 "/>
<path style=" stroke:none;fill-rule:nonzero;fill:rgb(80%,80%,80%);fill-opacity:1;" d="M 185.273438 95.019531 C 185.027344 94.863281 184.714844 94.859375 184.460938 94.996094 L 183.953125 95.292969 C 183.496094 95.5625 182.277344 96.265625 181.996094 96.222656 C 181.519531 95.746094 180.664062 95.074219 180.085938 94.636719 C 180.117188 94.492188 180.121094 94.363281 180.109375 94.261719 C 180.007812 92.96875 177.78125 91.769531 176.464844 91.171875 C 176.375 91.128906 176.28125 91.105469 176.183594 91.105469 L 171.085938 90.765625 L 167.488281 90.765625 C 167.152344 90.765625 166.667969 90.808594 166.121094 90.859375 C 165.488281 90.921875 164.761719 90.988281 164.113281 90.988281 C 163.257812 90.988281 162.070312 91.558594 160.484375 92.359375 C 159.859375 92.675781 159.152344 93.03125 158.867188 93.105469 C 158.425781 93.214844 157.847656 93.46875 157.179688 93.761719 C 156.460938 94.078125 155.382812 94.550781 154.972656 94.550781 C 153.730469 94.550781 152.335938 96.171875 151.863281 96.78125 C 150.46875 99.335938 151.027344 100.007812 151.210938 100.230469 C 151.359375 100.40625 151.789062 100.777344 152.589844 100.519531 C 153.796875 100.109375 155.011719 100.175781 155.171875 100.234375 C 155.296875 100.597656 155.476562 101.078125 155.65625 101.558594 C 155.785156 101.890625 155.910156 102.226562 156.015625 102.515625 C 155.90625 102.511719 155.78125 102.511719 155.664062 102.550781 C 154.15625 103.054688 152.914062 103.804688 152.710938 103.957031 C 151.316406 105.355469 149.902344 106.597656 149.503906 106.945312 C 149.074219 107.097656 147.886719 107.558594 147.019531 108.214844 C 146.695312 108.453125 146.105469 108.644531 145.527344 108.824219 C 144.632812 109.113281 143.710938 109.40625 143.234375 110.070312 C 142.285156 111.398438 142.640625 112.675781 143.285156 113.488281 L 142.3125 114.757812 L 141.511719 115.320312 L 138.1875 116.003906 L 136.066406 116.359375 C 135.839844 116.398438 135.640625 116.542969 135.523438 116.738281 C 135.402344 116.9375 135.378906 117.183594 135.445312 117.402344 C 135.53125 117.691406 135.40625 118.902344 135.160156 120.15625 L 135.160156 124.230469 C 135.160156 124.589844 135.402344 124.90625 135.75 125 C 136.59375 125.230469 139.402344 125.992188 140.171875 125.992188 L 140.515625 126.003906 C 141.445312 126.042969 143.15625 126.109375 144.230469 125.035156 C 145.238281 124.015625 146.835938 121.816406 147.328125 121.070312 C 147.71875 120.484375 148.257812 119.886719 149.515625 119.464844 C 150.503906 119.132812 151.027344 118.695312 151.402344 118.371094 C 151.632812 118.175781 151.761719 118.074219 151.910156 118.027344 C 152.347656 117.878906 153.980469 117.574219 155.09375 117.382812 L 156.742188 118.484375 C 156.664062 118.6875 156.640625 118.933594 156.738281 119.210938 C 156.945312 119.800781 157.539062 120.230469 159.8125 120.617188 L 159.8125 121.835938 C 159.8125 122.0625 159.90625 122.273438 160.070312 122.425781 C 160.238281 122.578125 160.464844 122.664062 160.679688 122.632812 L 163.625 122.390625 C 163.925781 122.363281 164.191406 122.171875 164.300781 121.890625 C 164.410156 121.609375 164.359375 121.285156 164.15625 121.058594 L 162.449219 119.132812 C 162.34375 119.011719 162.203125 118.933594 162.050781 118.890625 L 159.589844 116.421875 L 159.558594 116.070312 C 160.480469 116.585938 161.636719 117.226562 162.191406 117.496094 C 162.921875 117.863281 164.390625 118.867188 164.910156 119.222656 L 166.246094 122.382812 C 166.273438 122.449219 166.3125 122.515625 166.363281 122.578125 L 168.289062 124.925781 C 168.566406 125.269531 169.078125 125.316406 169.414062 125.039062 C 169.753906 124.761719 169.808594 124.261719 169.535156 123.914062 C 168.769531 122.960938 168.585938 122.332031 168.589844 122.242188 C 168.589844 122.238281 168.714844 122.148438 169.078125 122.144531 C 169.65625 122.203125 171.601562 122.382812 172.414062 122.105469 C 173.011719 121.910156 173.523438 121.726562 174.117188 121.460938 C 173.757812 121.886719 173.53125 122.460938 173.675781 123.179688 C 173.902344 124.316406 174.679688 125.730469 175.996094 127.375 C 176.199219 127.632812 176.394531 127.902344 176.578125 128.164062 C 177.328125 129.210938 178.265625 130.515625 179.464844 129.710938 C 179.785156 129.5 180.441406 129.097656 181.066406 128.714844 C 181.027344 129.1875 181.03125 129.699219 181.128906 130.164062 C 181.257812 130.777344 181.3125 131.550781 181.335938 132.109375 C 180.070312 132.195312 179.710938 132.5 179.570312 132.949219 C 179.523438 133.105469 179.417969 133.632812 180.03125 134.046875 C 180.257812 134.195312 180.601562 134.652344 180.925781 135.121094 C 180.496094 134.644531 179.851562 134.28125 179.136719 133.925781 C 178.660156 133.691406 178.160156 133.449219 177.820312 133.1875 C 176.824219 132.445312 172.269531 131.476562 170.667969 131.148438 C 169.621094 130.511719 168.265625 129.925781 167.472656 130.558594 C 165.472656 132.148438 160.394531 131.191406 159.125 130.683594 C 158.144531 130.296875 157.699219 129.796875 157.699219 129.503906 C 157.699219 128.722656 156.839844 125.902344 156.574219 125.054688 C 156.453125 124.671875 156.082031 124.429688 155.671875 124.503906 C 154.789062 124.660156 153.210938 124.910156 152.738281 124.910156 C 152.390625 124.910156 151.265625 124.546875 150.421875 124.210938 C 150.304688 124.164062 150.179688 124.144531 150.046875 124.15625 C 149.785156 124.183594 147.472656 124.414062 146.402344 124.953125 C 145.53125 125.394531 143.667969 126.09375 142.914062 126.34375 C 142.445312 126.5 141.253906 126.679688 140.636719 126.765625 C 138.183594 125.84375 136.246094 128.105469 135.476562 129.636719 C 135.335938 129.925781 135.113281 130.179688 134.878906 130.449219 C 134.464844 130.921875 133.949219 131.519531 133.949219 132.394531 C 133.949219 132.792969 132.859375 133.972656 131.894531 134.613281 C 131.761719 134.703125 131.554688 134.828125 131.308594 134.980469 C 129.761719 135.929688 128.199219 136.945312 127.574219 137.988281 C 126.917969 139.078125 126.070312 140.679688 125.785156 142.097656 C 125.535156 143.375 125.535156 144.40625 125.535156 146.097656 C 125.535156 146.679688 125.503906 147.175781 125.476562 147.628906 C 125.425781 148.492188 125.375 149.300781 125.542969 150.324219 C 125.828125 152.089844 128.589844 156.042969 129.3125 156.949219 C 130.359375 158.257812 131.589844 159.714844 132.902344 160.492188 C 133.890625 161.09375 135.277344 162.242188 135.605469 162.523438 C 136.121094 163.207031 137.464844 164.152344 139.351562 163.441406 C 140.101562 163.164062 140.878906 162.996094 141.628906 162.832031 C 142.753906 162.589844 143.914062 162.328125 145.007812 161.710938 C 146.65625 160.777344 147.722656 160.445312 148.144531 160.429688 C 148.183594 161.40625 148.570312 162.230469 149.238281 162.710938 C 149.886719 163.179688 150.71875 163.28125 151.601562 162.984375 C 151.832031 162.90625 152.089844 162.808594 152.351562 162.710938 C 152.8125 162.535156 153.699219 162.203125 154.144531 162.160156 C 153.992188 163.34375 154.242188 164.667969 154.441406 165.730469 C 154.539062 166.257812 154.632812 166.757812 154.632812 167.035156 C 154.632812 167.214844 154.621094 167.390625 154.617188 167.566406 C 154.574219 168.386719 154.523438 169.414062 155.347656 170.242188 C 155.589844 170.480469 155.957031 170.777344 156.351562 171.09375 C 156.8125 171.460938 157.671875 172.140625 157.769531 172.324219 C 157.769531 172.929688 157.972656 175.566406 158.574219 176.773438 C 159.140625 177.902344 159.332031 178.917969 159.078125 179.425781 C 158.578125 180.421875 157.664062 183.019531 157.597656 183.238281 C 157.492188 183.792969 157.15625 185.671875 157.445312 186.515625 C 157.769531 187.492188 158.515625 188.570312 159.671875 189.722656 C 160.253906 190.304688 160.492188 190.964844 160.75 191.65625 C 160.945312 192.199219 161.148438 192.757812 161.515625 193.238281 C 162.066406 193.980469 163.128906 196.167969 163.515625 196.996094 L 164.746094 199.222656 L 164.746094 201.175781 C 164.746094 201.410156 164.851562 201.636719 165.03125 201.785156 C 165.175781 201.910156 165.355469 201.976562 165.546875 201.976562 C 165.589844 201.976562 165.640625 201.972656 165.683594 201.964844 C 165.855469 201.933594 169.8125 201.238281 170.789062 200.992188 C 171.921875 200.703125 174.59375 198.925781 175.625 197.902344 C 176.144531 197.378906 176.386719 196.914062 176.59375 196.507812 C 176.820312 196.074219 177 195.734375 177.523438 195.3125 C 178.726562 194.355469 180.90625 192.671875 180.90625 192.671875 C 181.117188 192.511719 181.234375 192.25 181.21875 191.988281 L 181.007812 188.683594 L 183.652344 185.152344 L 185.898438 182.890625 C 186.546875 182.007812 188.019531 179.820312 187.710938 178.628906 C 187.554688 177.988281 187.226562 175.09375 187.03125 173.179688 C 187.351562 172.480469 188.046875 171.058594 188.546875 170.394531 C 188.851562 169.972656 189.039062 169.539062 189.222656 169.121094 C 189.511719 168.449219 189.792969 167.8125 190.574219 167.164062 C 191.886719 166.078125 192.820312 164.796875 193.503906 163.863281 L 194.085938 163.074219 C 194.855469 162.046875 196.066406 160.4375 196.496094 159.792969 L 196.496094 159.789062 C 196.917969 159.164062 197.273438 157.882812 197.578125 156.679688 C 197.644531 156.472656 197.628906 156.226562 197.515625 156.027344 C 197.34375 155.738281 197.011719 155.585938 196.691406 155.640625 L 192.886719 156.273438 C 191.953125 154.808594 190.378906 152.660156 189.089844 150.894531 C 188.113281 149.566406 187.195312 148.304688 186.914062 147.835938 C 186.292969 146.800781 185.609375 144.613281 185.324219 143.480469 C 185.152344 142.8125 184.621094 141.535156 184.144531 140.410156 C 183.90625 139.832031 183.691406 139.335938 183.613281 139.09375 C 183.601562 139.0625 183.574219 139.015625 183.5625 138.984375 C 186.152344 142.714844 189.492188 147.699219 189.832031 148.375 C 189.976562 148.671875 190.039062 149.09375 190.109375 149.539062 C 190.222656 150.285156 190.351562 151.132812 190.945312 151.71875 C 192.742188 153.515625 195.921875 152.054688 196.996094 151.34375 C 197.214844 151.199219 197.59375 150.992188 198.023438 150.742188 C 199.367188 149.980469 200.4375 149.359375 200.980469 148.816406 C 201.460938 148.347656 201.460938 148.347656 201.976562 148.011719 L 202.777344 147.488281 C 204.097656 146.605469 204.964844 145.960938 205.054688 145.0625 C 205.082031 144.757812 205.027344 144.296875 204.582031 143.851562 C 204.117188 143.382812 203.09375 141.644531 202.558594 140.667969 C 202.386719 140.351562 202.03125 140.195312 201.679688 140.269531 C 200.011719 140.640625 198.472656 139.800781 198.316406 139.609375 C 198.316406 139.125 197.902344 138.253906 197.367188 137.328125 C 197.863281 137.644531 198.355469 138.054688 198.832031 138.453125 C 199.898438 139.339844 200.902344 140.175781 202.09375 140.175781 C 203.214844 140.175781 203.789062 140.507812 205.175781 141.304688 L 205.542969 141.515625 C 206.390625 141.992188 206.980469 142.554688 207.5 143.050781 C 207.96875 143.488281 208.410156 143.90625 208.945312 144.179688 C 209.519531 144.46875 210.550781 145.660156 210.972656 146.183594 C 211.367188 147.101562 212.433594 149.652344 212.613281 150.394531 C 212.613281 150.394531 212.613281 150.398438 212.613281 150.402344 C 212.738281 150.882812 213.070312 151.660156 213.457031 152.558594 C 213.628906 152.953125 213.796875 153.363281 213.949219 153.730469 C 214.074219 154.039062 214.367188 154.234375 214.6875 154.234375 C 214.730469 154.234375 214.777344 154.230469 214.820312 154.222656 C 215.191406 154.160156 215.46875 153.851562 215.488281 153.480469 L 215.546875 152.566406 C 215.621094 151.648438 215.683594 150.722656 215.683594 149.792969 C 215.683594 127.453125 204.316406 106.976562 185.273438 95.019531 Z M 175.585938 118.890625 C 175.488281 118.246094 175.449219 117.832031 175.695312 117.515625 C 176.503906 116.515625 177.550781 116.089844 178.261719 115.847656 C 178.910156 115.636719 180.621094 114.804688 181.28125 114.476562 L 182.050781 114.617188 C 180.765625 115.882812 180.988281 116.328125 181.128906 116.617188 C 181.210938 116.773438 181.527344 117.277344 182.347656 117.070312 C 182.847656 116.976562 184.648438 117.773438 185.761719 118.617188 C 185.96875 118.773438 185.964844 119.171875 185.902344 119.519531 C 185.015625 119.433594 183.421875 119.269531 182.269531 119.101562 C 180.472656 118.855469 177.789062 119.332031 177.679688 119.347656 C 177.589844 119.363281 177.507812 119.398438 177.433594 119.4375 L 175.453125 120.546875 C 175.761719 120.03125 175.660156 119.375 175.585938 118.890625 Z M 160.453125 104.34375 C 160.785156 104.382812 161.117188 104.167969 161.253906 103.851562 C 161.257812 103.84375 161.722656 102.722656 162.367188 101.863281 C 162.613281 101.53125 162.851562 101.179688 163.070312 100.855469 C 163.402344 101.550781 163.738281 102.277344 163.84375 102.589844 C 163.90625 102.847656 163.722656 103.808594 163.449219 104.710938 C 162.367188 105.382812 161.089844 106.074219 160.867188 106.125 C 160.503906 106.011719 159.289062 105.085938 157.992188 104.011719 C 158.585938 104.152344 159.382812 104.273438 160.453125 104.34375 Z M 160.453125 104.34375 "/>
<path style=" stroke:none;fill-rule:nonzero;fill:rgb(80%,80%,80%);fill-opacity:1;" d="M 147.273438 104.257812 L 144.671875 101.140625 L 143.257812 98.394531 C 143.140625 98.167969 142.921875 98.011719 142.675781 97.96875 C 142.421875 97.910156 142.167969 97.996094 141.980469 98.175781 L 140.65625 99.421875 C 140.496094 99.574219 140.402344 99.78125 140.402344 100.007812 L 140.402344 103.402344 L 138.035156 102.734375 C 137.644531 102.613281 137.238281 102.816406 137.074219 103.1875 L 136.085938 105.4375 C 135.976562 105.6875 136.003906 105.976562 136.152344 106.203125 L 137.140625 107.707031 C 137.261719 107.898438 137.460938 108.027344 137.683594 108.0625 C 137.726562 108.070312 137.769531 108.070312 137.8125 108.070312 C 137.992188 108.070312 138.164062 108.011719 138.3125 107.902344 L 140.398438 106.273438 L 140.398438 107.265625 C 140.398438 107.511719 140.515625 107.742188 140.703125 107.894531 C 140.898438 108.050781 141.144531 108.109375 141.386719 108.050781 L 145.734375 107.050781 C 145.925781 107.007812 146.089844 106.894531 146.203125 106.738281 L 147.296875 105.242188 C 147.523438 104.945312 147.511719 104.539062 147.273438 104.257812 Z M 147.273438 104.257812 "/>
<path style=" stroke:none;fill-rule:nonzero;fill:rgb(80%,80%,80%);fill-opacity:1;" d="M 194 151.5 L 83.75 151.5 C 83.335938 151.5 83 151.164062 83 150.75 C 83 150.335938 83.335938 150 83.75 150 L 194 150 C 194.414062 150 194.75 150.335938 194.75 150.75 C 194.75 151.164062 194.414062 151.5 194 151.5 Z M 151.5 125.371094 C 134.265625 125.371094 117.03125 118.339844 102.96875 104.28125 C 102.675781 103.984375 102.675781 103.511719 102.96875 103.21875 C 103.261719 102.925781 103.738281 102.925781 104.03125 103.21875 C 131.539062 130.722656 171.464844 130.722656 198.96875 103.21875 C 199.261719 102.925781 199.738281 102.925781 200.03125 103.21875 C 200.324219 103.511719 200.324219 103.984375 200.03125 104.28125 C 185.96875 118.339844 168.734375 125.371094 151.5 125.371094 Z M 151.5 125.371094 "/>
<path style=" stroke:none;fill-rule:nonzero;fill:rgb(80%,80%,80%);fill-opacity:1;" d="M 149.90625 216.75 C 149.734375 216.75 149.554688 216.6875 149.414062 216.5625 C 128.03125 198.023438 116.25 174.425781 116.25 150.117188 C 116.25 125.921875 128.027344 102.382812 149.414062 83.839844 C 149.726562 83.570312 150.203125 83.601562 150.472656 83.914062 C 150.742188 84.226562 150.710938 84.703125 150.398438 84.972656 C 129.34375 103.226562 117.75 126.359375 117.75 150.117188 C 117.75 173.984375 129.34375 197.179688 150.394531 215.433594 C 150.707031 215.703125 150.742188 216.175781 150.472656 216.492188 C 150.328125 216.664062 150.117188 216.75 149.90625 216.75 Z M 153 216.75 C 152.789062 216.75 152.578125 216.664062 152.433594 216.492188 C 152.164062 216.179688 152.195312 215.703125 152.507812 215.433594 C 173.5625 197.179688 185.152344 173.984375 185.152344 150.117188 C 185.152344 126.359375 173.558594 103.226562 152.507812 84.972656 C 152.195312 84.703125 152.160156 84.226562 152.433594 83.914062 C 152.707031 83.597656 153.179688 83.570312 153.492188 83.839844 C 174.878906 102.382812 186.65625 125.917969 186.65625 150.117188 C 186.65625 174.425781 174.878906 198.023438 153.492188 216.5625 C 153.351562 216.6875 153.175781 216.75 153 216.75 Z M 153 216.75 "/>
<path style=" stroke:none;fill-rule:nonzero;fill:rgb(80%,80%,80%);fill-opacity:1;" d="M 199.5 196.5625 C 199.308594 196.5625 199.117188 196.492188 198.96875 196.34375 C 171.460938 168.839844 131.535156 168.839844 104.03125 196.34375 C 103.738281 196.636719 103.261719 196.636719 102.96875 196.34375 C 102.675781 196.050781 102.675781 195.574219 102.96875 195.28125 C 131.089844 167.164062 171.910156 167.164062 200.03125 195.28125 C 200.324219 195.574219 200.324219 196.050781 200.03125 196.34375 C 199.882812 196.492188 199.691406 196.5625 199.5 196.5625 Z M 199.5 196.5625 "/>
<path style=" stroke:none;fill-rule:nonzero;fill:rgb(80%,80%,80%);fill-opacity:1;" d="M 218 151.5 L 202.753906 151.5 C 202.339844 151.5 202.003906 151.164062 202.003906 150.75 C 202.003906 150.335938 202.335938 150 202.75 150 L 217.996094 150 C 218.410156 150 218.746094 150.335938 218.746094 150.75 C 218.746094 151.164062 218.414062 151.5 218 151.5 Z M 218 151.5 "/>
<path style=" stroke:none;fill-rule:nonzero;fill:rgb(80%,80%,80%);fill-opacity:1;" d="M 151.5 218.25 C 151.085938 218.25 150.75 217.914062 150.75 217.5 L 150.75 136.5 C 150.75 136.085938 151.085938 135.75 151.5 135.75 C 151.914062 135.75 152.25 136.085938 152.25 136.5 L 152.25 217.5 C 152.25 217.914062 151.914062 218.25 151.5 218.25 Z M 151.5 218.25 "/>
<path style=" stroke:none;fill-rule:nonzero;fill:rgb(80%,80%,80%);fill-opacity:1;" d="M 151.5 98.25 C 151.085938 98.25 150.75 97.914062 150.75 97.5 L 150.75 82.5 C 150.75 82.085938 151.085938 81.75 151.5 81.75 C 151.914062 81.75 152.25 82.085938 152.25 82.5 L 152.25 97.5 C 152.25 97.914062 151.914062 98.25 151.5 98.25 Z M 151.5 98.25 "/>
<path style=" stroke:none;fill-rule:nonzero;fill:rgb(80%,80%,80%);fill-opacity:1;" d="M 151.5 128.25 C 151.085938 128.25 150.75 127.914062 150.75 127.5 L 150.75 106.5 C 150.75 106.085938 151.085938 105.75 151.5 105.75 C 151.914062 105.75 152.25 106.085938 152.25 106.5 L 152.25 127.5 C 152.25 127.914062 151.914062 128.25 151.5 128.25 Z M 151.5 128.25 "/>
<path style=" stroke:none;fill-rule:nonzero;fill:rgb(92.54902%,94.117647%,94.509804%);fill-opacity:1;" d="M 232.375 114.214844 C 232.375 106.183594 229.054688 98.941406 223.722656 93.742188 C 223.203125 93.21875 222.648438 92.726562 222.078125 92.25 C 222.019531 92.203125 221.96875 92.152344 221.914062 92.105469 C 221.339844 91.636719 220.738281 91.191406 220.117188 90.765625 C 219.949219 90.648438 219.785156 90.519531 219.613281 90.40625 C 219.355469 90.234375 219.082031 90.082031 218.8125 89.917969 C 214.425781 87.191406 209.261719 85.277344 203.710938 85.277344 C 203.566406 85.277344 202.945312 85.3125 203.015625 85.3125 C 187.511719 85.6875 175.054688 98.488281 175.054688 114.0625 C 175.054688 130.867188 203.996094 163.734375 203.996094 163.734375 C 203.996094 163.734375 232.375 131.101562 232.375 114.214844 Z M 232.375 114.214844 "/>
<path style=" stroke:none;fill-rule:nonzero;fill:rgb(80%,80%,80%);fill-opacity:1;" d="M 204 165.003906 C 203.632812 165.003906 203.285156 164.84375 203.042969 164.566406 C 201.847656 163.214844 173.785156 131.140625 173.785156 114.058594 C 173.785156 97.894531 186.886719 84.425781 202.988281 84.035156 L 202.988281 84.039062 C 203.257812 84 203.519531 84 203.71875 84 C 209.023438 84 214.328125 85.625 219.492188 88.832031 C 219.910156 89.078125 220.117188 89.203125 220.316406 89.335938 L 220.683594 89.59375 C 221.496094 90.160156 222.128906 90.628906 222.730469 91.117188 C 223.5 91.777344 224.078125 92.296875 224.625 92.839844 C 230.4375 98.507812 233.648438 106.101562 233.648438 114.214844 C 233.648438 131.378906 206.132812 163.214844 204.964844 164.558594 C 204.71875 164.839844 204.371094 165 204.007812 165 L 204 165 Z M 203.167969 86.574219 C 203.128906 86.578125 203.089844 86.582031 203.050781 86.582031 C 188.316406 86.941406 176.332031 99.265625 176.332031 114.058594 C 176.332031 128.484375 199 155.90625 203.992188 161.769531 C 208.914062 155.914062 231.101562 128.710938 231.101562 114.21875 C 231.101562 106.800781 228.164062 99.847656 222.835938 94.652344 C 222.328125 94.144531 221.800781 93.679688 221.261719 93.226562 C 220.566406 92.640625 219.988281 92.21875 219.402344 91.816406 L 218.402344 91.152344 C 213.394531 88.046875 208.539062 86.550781 203.71875 86.550781 C 203.613281 86.546875 203.296875 86.566406 203.167969 86.574219 Z M 203.167969 86.574219 "/>
<path style=" stroke:none;fill-rule:nonzero;fill:rgb(80%,80%,80%);fill-opacity:1;" d="M 203.714844 97.871094 C 195.816406 97.871094 189.410156 104.269531 189.410156 112.160156 C 189.410156 120.050781 195.816406 126.449219 203.714844 126.449219 C 211.613281 126.449219 218.019531 120.050781 218.019531 112.160156 C 218.019531 104.269531 211.613281 97.871094 203.714844 97.871094 Z M 203.714844 97.871094 "/>
<path style=" stroke:none;fill-rule:nonzero;fill:rgb(80%,80%,80%);fill-opacity:1;" d="M 203.714844 127.570312 C 195.207031 127.570312 188.285156 120.660156 188.285156 112.160156 C 188.285156 103.660156 195.207031 96.746094 203.714844 96.746094 C 212.222656 96.746094 219.144531 103.660156 219.144531 112.160156 C 219.144531 120.660156 212.222656 127.570312 203.714844 127.570312 Z M 203.714844 98.992188 C 196.449219 98.992188 190.535156 104.902344 190.535156 112.160156 C 190.535156 119.417969 196.449219 125.324219 203.714844 125.324219 C 210.980469 125.324219 216.894531 119.417969 216.894531 112.160156 C 216.894531 104.902344 210.984375 98.992188 203.714844 98.992188 Z M 203.714844 98.992188 "/>
<path style=" stroke:none;fill-rule:nonzero;fill:rgb(99.215686%,98.823529%,93.333333%);fill-opacity:1;" d="M 203.714844 103.859375 C 199.125 103.859375 195.40625 107.578125 195.40625 112.160156 C 195.40625 116.746094 199.125 120.460938 203.714844 120.460938 C 208.304688 120.460938 212.023438 116.746094 212.023438 112.160156 C 212.023438 107.578125 208.304688 103.859375 203.714844 103.859375 Z M 203.714844 103.859375 "/>
<path style=" stroke:none;fill-rule:nonzero;fill:rgb(80%,80%,80%);fill-opacity:1;" d="M 203.714844 121.210938 C 198.71875 121.210938 194.65625 117.148438 194.65625 112.15625 C 194.65625 107.164062 198.71875 103.105469 203.714844 103.105469 C 208.710938 103.105469 212.773438 107.164062 212.773438 112.15625 C 212.773438 117.152344 208.710938 121.210938 203.714844 121.210938 Z M 203.714844 104.605469 C 199.546875 104.605469 196.15625 107.996094 196.15625 112.160156 C 196.15625 116.324219 199.546875 119.710938 203.714844 119.710938 C 207.886719 119.710938 211.273438 116.324219 211.273438 112.160156 C 211.273438 107.996094 207.886719 104.605469 203.714844 104.605469 Z M 203.714844 104.605469 "/>
</g>
</svg>
