<svg version="1.2" baseProfile="tiny-ps" xmlns="http://www.w3.org/2000/svg" viewBox="0 0 41 40" width="41" height="40">
	<title>Home – 39</title>
	<style>
		tspan { white-space:pre }
		.shp0 { fill: #1463a0 } 
	</style>
	<g id="Home – 39">
		<g id="组 3974">
			<g id="组 2853">
				<g id="组 2855">
					<g id="approval-symbol-in-badge">
						<path id="路径 4469" fill-rule="evenodd" class="shp0" d="M40.11 22.78L36.93 25.82L37.29 30.21C37.34 30.81 36.96 31.36 36.38 31.53L32.15 32.75L30.43 36.8C30.2 37.35 29.6 37.67 29.02 37.54L24.7 36.66L21.3 39.45C21.07 39.63 20.78 39.73 20.5 39.73C20.22 39.73 19.93 39.63 19.7 39.45L16.3 36.66L11.98 37.54C11.39 37.67 10.8 37.35 10.57 36.8L8.85 32.75L4.62 31.53C4.04 31.36 3.66 30.81 3.71 30.21L4.07 25.82L0.89 22.78C0.46 22.36 0.37 21.7 0.7 21.19L3.05 17.47L1.65 13.3C1.46 12.73 1.7 12.1 2.22 11.8L6.04 9.6L6.74 5.26C6.83 4.67 7.33 4.22 7.93 4.2L12.33 4.03L14.97 0.5C15.33 0.03 15.98 -0.13 16.52 0.12L20.5 2.01L24.47 0.12C25.01 -0.14 25.67 0.02 26.03 0.5L28.67 4.03L33.07 4.2C33.66 4.23 34.16 4.67 34.26 5.26L34.96 9.61L38.78 11.81C39.3 12.1 39.53 12.73 39.35 13.3L37.95 17.47L40.3 21.19C40.63 21.7 40.54 22.36 40.11 22.78ZM29.32 13.52L27.44 12.23C26.93 11.88 26.22 12.01 25.87 12.54L18.91 22.96L14.69 18.68C14.25 18.23 13.53 18.23 13.09 18.68L11.49 20.31C11.05 20.76 11.05 21.49 11.49 21.94L17.97 28.52C18.34 28.89 18.91 29.18 19.42 29.18C19.94 29.18 20.45 28.85 20.79 28.35L29.62 15.12C29.97 14.6 29.84 13.88 29.32 13.52Z" />
					</g>
				</g>
			</g>
		</g>
	</g>
</svg>