<svg version="1.2" baseProfile="tiny-ps" xmlns="http://www.w3.org/2000/svg" viewBox="0 0 11 10" width="11" height="10">
	<title>Home – 3</title>
	<style>
		tspan { white-space:pre }
		.shp0 { fill: #000000 } 
	</style>
	<g id="Home – 3">
		<g id="qr-code-scan">
			<path id="路径 4447" class="shp0" d="M9.42 0L8.02 0C7.86 0 7.73 0.13 7.73 0.29C7.73 0.45 7.86 0.59 8.02 0.59L9.42 0.59C9.69 0.59 9.91 0.81 9.91 1.08L9.91 2.48C9.91 2.64 10.05 2.77 10.21 2.77C10.37 2.77 10.5 2.64 10.5 2.48L10.5 1.08C10.5 0.48 10.01 0 9.42 0L9.42 0Z" />
			<path id="路径 4448" class="shp0" d="M0.79 2.77C0.95 2.77 1.09 2.64 1.09 2.48L1.09 1.08C1.09 0.81 1.31 0.59 1.58 0.59L2.98 0.59C3.14 0.59 3.27 0.45 3.27 0.29C3.27 0.13 3.14 0 2.98 0L1.58 0C0.98 0 0.5 0.48 0.5 1.08L0.5 2.48C0.5 2.64 0.63 2.77 0.79 2.77L0.79 2.77Z" />
			<path id="路径 4449" class="shp0" d="M2.98 9.41L1.58 9.41C1.31 9.41 1.09 9.19 1.09 8.92L1.09 7.52C1.09 7.36 0.95 7.23 0.79 7.23C0.63 7.23 0.5 7.36 0.5 7.52L0.5 8.92C0.5 9.52 0.98 10 1.58 10L2.98 10C3.14 10 3.27 9.87 3.27 9.71C3.27 9.55 3.14 9.41 2.98 9.41Z" />
			<path id="路径 4450" class="shp0" d="M10.21 7.23C10.05 7.23 9.91 7.36 9.91 7.52L9.91 8.92C9.91 9.19 9.69 9.41 9.42 9.41L8.02 9.41C7.86 9.41 7.73 9.55 7.73 9.71C7.73 9.87 7.86 10 8.02 10L9.42 10C10.01 10 10.5 9.52 10.5 8.92L10.5 7.52C10.5 7.36 10.37 7.23 10.21 7.23Z" />
			<path id="路径 4451" class="shp0" d="M7.17 2.15L8.1 2.15C8.23 2.15 8.33 2.25 8.33 2.38L8.33 3.31C8.33 3.47 8.46 3.6 8.62 3.6C8.79 3.6 8.92 3.47 8.92 3.31L8.92 2.38C8.92 1.93 8.55 1.56 8.1 1.56L7.17 1.56C7.01 1.56 6.88 1.69 6.88 1.86C6.88 2.02 7.01 2.15 7.17 2.15Z" />
			<path id="路径 4452" class="shp0" d="M2.08 2.38L2.08 3.31C2.08 3.47 2.21 3.6 2.37 3.6C2.54 3.6 2.67 3.47 2.67 3.31L2.67 2.38C2.67 2.25 2.77 2.15 2.9 2.15L3.83 2.15C3.99 2.15 4.12 2.02 4.12 1.86C4.12 1.69 3.99 1.56 3.83 1.56L2.9 1.56C2.45 1.56 2.08 1.93 2.08 2.38Z" />
			<path id="路径 4453" class="shp0" d="M3.83 7.81L2.9 7.81C2.77 7.81 2.67 7.71 2.67 7.58L2.67 6.65C2.67 6.49 2.54 6.36 2.37 6.36C2.21 6.36 2.08 6.49 2.08 6.65L2.08 7.58C2.08 8.03 2.45 8.4 2.9 8.4L3.83 8.4C3.99 8.4 4.12 8.27 4.12 8.11C4.12 7.94 3.99 7.81 3.83 7.81Z" />
			<path id="路径 4454" class="shp0" d="M8.92 7.58L8.92 6.65C8.92 6.49 8.79 6.36 8.62 6.36C8.46 6.36 8.33 6.49 8.33 6.65L8.33 7.58C8.33 7.71 8.23 7.81 8.1 7.81L7.17 7.81C7.01 7.81 6.88 7.94 6.88 8.11C6.88 8.27 7.01 8.4 7.17 8.4L8.1 8.4C8.55 8.4 8.92 8.03 8.92 7.58Z" />
			<path id="路径 4455" class="shp0" d="M0.52 5C0.52 5.16 0.65 5.29 0.81 5.29L10.19 5.29C10.35 5.29 10.48 5.16 10.48 5C10.48 4.84 10.35 4.71 10.19 4.71L0.81 4.71C0.65 4.71 0.52 4.84 0.52 5Z" />
		</g>
	</g>
</svg>