<?xml version="1.0" encoding="UTF-8"?>
<svg xmlns="http://www.w3.org/2000/svg" xmlns:xlink="http://www.w3.org/1999/xlink" width="300px" height="300px" viewBox="0 0 300 300" version="1.1">
<g id="surface452970">
<path style=" stroke:none;fill-rule:nonzero;fill:rgb(92.54902%,94.117647%,94.509804%);fill-opacity:1;" d="M 231 36 C 229.34375 36 228 37.34375 228 39 C 228 40.65625 229.34375 42 231 42 C 232.65625 42 234 40.65625 234 39 C 234 37.34375 232.65625 36 231 36 Z M 231 36 "/>
<path style=" stroke:none;fill-rule:nonzero;fill:rgb(92.54902%,94.117647%,94.509804%);fill-opacity:1;" d="M 150 39 C 88.695312 39 39 88.695312 39 150 C 39 211.304688 88.695312 261 150 261 C 211.304688 261 261 211.304688 261 150 C 261 88.695312 211.304688 39 150 39 Z M 150 39 "/>
<path style=" stroke:none;fill-rule:nonzero;fill:rgb(92.54902%,94.117647%,94.509804%);fill-opacity:1;" d="M 249 33 C 242.371094 33 237 38.371094 237 45 C 237 51.628906 242.371094 57 249 57 C 255.628906 57 261 51.628906 261 45 C 261 38.371094 255.628906 33 249 33 Z M 249 33 "/>
<path style=" stroke:none;fill-rule:nonzero;fill:rgb(80%,80%,80%);fill-opacity:1;" d="M 261 66 C 257.6875 66 255 68.6875 255 72 C 255 75.3125 257.6875 78 261 78 C 264.3125 78 267 75.3125 267 72 C 267 68.6875 264.3125 66 261 66 Z M 261 66 "/>
<path style=" stroke:none;fill-rule:nonzero;fill:rgb(92.54902%,94.117647%,94.509804%);fill-opacity:1;" d="M 243 222 C 239.6875 222 237 224.6875 237 228 C 237 231.3125 239.6875 234 243 234 C 246.3125 234 249 231.3125 249 228 C 249 224.6875 246.3125 222 243 222 Z M 45 177 C 38.371094 177 33 182.371094 33 189 C 33 195.628906 38.371094 201 45 201 C 51.628906 201 57 195.628906 57 189 C 57 182.371094 51.628906 177 45 177 Z M 45 177 "/>
<path style=" stroke:none;fill-rule:nonzero;fill:rgb(80%,80%,80%);fill-opacity:1;" d="M 75 255 C 71.6875 255 69 257.6875 69 261 C 69 264.3125 71.6875 267 75 267 C 78.3125 267 81 264.3125 81 261 C 81 257.6875 78.3125 255 75 255 Z M 75 255 "/>
<path style=" stroke:none;fill-rule:nonzero;fill:rgb(100%,100%,100%);fill-opacity:1;" d="M 55.5 147 C 51.359375 147 48 150.359375 48 154.5 C 48 158.640625 51.359375 162 55.5 162 C 59.640625 162 63 158.640625 63 154.5 C 63 150.359375 59.640625 147 55.5 147 Z M 238.5 96 C 236.015625 96 234 98.015625 234 100.5 C 234 102.984375 236.015625 105 238.5 105 C 240.984375 105 243 102.984375 243 100.5 C 243 98.015625 240.984375 96 238.5 96 Z M 238.5 96 "/>
<path style=" stroke:none;fill-rule:nonzero;fill:rgb(92.54902%,94.117647%,94.509804%);fill-opacity:1;" d="M 105 216.898438 C 92.925781 216.898438 83.101562 207.078125 83.101562 195 L 83.101562 105 C 83.101562 92.925781 92.921875 83.101562 105 83.101562 L 195 83.101562 C 207.074219 83.101562 216.898438 92.921875 216.898438 105 L 216.898438 195 C 216.898438 207.074219 207.078125 216.898438 195 216.898438 Z M 105 216.898438 "/>
<path style=" stroke:none;fill-rule:nonzero;fill:rgb(80%,80%,80%);fill-opacity:1;" d="M 195 85.199219 C 205.917969 85.199219 214.800781 94.082031 214.800781 105 L 214.800781 195 C 214.800781 205.917969 205.917969 214.800781 195 214.800781 L 105 214.800781 C 94.082031 214.800781 85.199219 205.917969 85.199219 195 L 85.199219 105 C 85.199219 94.082031 94.082031 85.199219 105 85.199219 L 195 85.199219 M 195 81 L 105 81 C 91.800781 81 81 91.800781 81 105 L 81 195 C 81 208.199219 91.800781 219 105 219 L 195 219 C 208.199219 219 219 208.199219 219 195 L 219 105 C 219 91.800781 208.199219 81 195 81 Z M 195 81 "/>
<path style=" stroke:none;fill-rule:nonzero;fill:rgb(92.54902%,94.117647%,94.509804%);fill-opacity:1;" d="M 205.5 143.625 L 205.5 192 C 205.5 199.425781 199.425781 205.5 192 205.5 L 108 205.5 C 100.574219 205.5 94.5 199.425781 94.5 192 L 94.5 108 C 94.5 100.574219 100.574219 94.5 108 94.5 L 192 94.5 C 199.425781 94.5 205.5 100.574219 205.5 108 L 205.5 143.625 "/>
<path style=" stroke:none;fill-rule:nonzero;fill:rgb(80%,80%,80%);fill-opacity:1;" d="M 205.5 142.125 C 204.671875 142.125 204 141.453125 204 140.625 L 204 129 C 204 128.171875 204.671875 127.5 205.5 127.5 C 206.328125 127.5 207 128.171875 207 129 L 207 140.625 C 207 141.453125 206.328125 142.125 205.5 142.125 Z M 205.5 142.125 "/>
<path style=" stroke:none;fill-rule:nonzero;fill:rgb(80%,80%,80%);fill-opacity:1;" d="M 205.5 121.5 C 204.671875 121.5 204 120.828125 204 120 L 204 114 C 204 113.171875 204.671875 112.5 205.5 112.5 C 206.328125 112.5 207 113.171875 207 114 L 207 120 C 207 120.828125 206.328125 121.5 205.5 121.5 Z M 205.5 121.5 "/>
<path style=" stroke:none;fill-rule:nonzero;fill:rgb(80%,80%,80%);fill-opacity:1;" d="M 192 207 L 108 207 C 99.730469 207 93 200.269531 93 192 L 93 108 C 93 99.730469 99.730469 93 108 93 L 184.125 93 C 184.953125 93 185.625 93.671875 185.625 94.5 C 185.625 95.328125 184.953125 96 184.125 96 L 108 96 C 101.382812 96 96 101.382812 96 108 L 96 192 C 96 198.617188 101.382812 204 108 204 L 192 204 C 198.617188 204 204 198.617188 204 192 L 204 148.875 C 204 148.046875 204.671875 147.375 205.5 147.375 C 206.328125 147.375 207 148.046875 207 148.875 L 207 192 C 207 200.269531 200.269531 207 192 207 Z M 192 207 "/>
<path style=" stroke:none;fill-rule:nonzero;fill:rgb(100%,100%,100%);fill-opacity:1;" d="M 158.105469 180.394531 C 158.105469 182.65625 157.320312 184.570312 155.746094 186.140625 C 154.171875 187.714844 152.289062 188.503906 150.101562 188.503906 C 147.847656 188.503906 145.90625 187.714844 144.304688 186.140625 C 142.699219 184.570312 141.890625 182.65625 141.890625 180.394531 C 141.890625 178.210938 142.699219 176.308594 144.304688 174.699219 C 145.910156 173.089844 147.847656 172.289062 150.101562 172.289062 C 152.289062 172.289062 154.171875 173.089844 155.746094 174.699219 C 157.324219 176.308594 158.105469 178.207031 158.105469 180.394531 Z M 146.917969 165.003906 C 146.578125 157.546875 146.152344 151.285156 145.636719 146.21875 C 145.125 141.160156 144.613281 136.898438 144.101562 133.445312 C 143.589844 129.988281 143.140625 127.171875 142.765625 124.976562 C 142.390625 122.789062 142.203125 120.804688 142.203125 119.023438 C 142.203125 115.738281 142.9375 113.5 144.40625 112.300781 C 145.878906 111.105469 147.847656 110.503906 150.308594 110.503906 C 152.707031 110.503906 154.601562 111.121094 156.007812 112.351562 C 157.410156 113.582031 158.113281 115.738281 158.113281 118.816406 C 158.113281 120.597656 157.941406 122.613281 157.597656 124.867188 C 157.257812 127.128906 156.832031 129.984375 156.316406 133.441406 C 155.804688 136.894531 155.257812 141.15625 154.675781 146.21875 C 154.09375 151.28125 153.5625 157.542969 153.085938 165 Z M 146.917969 165.003906 "/>
<path style=" stroke:none;fill-rule:nonzero;fill:rgb(80%,80%,80%);fill-opacity:1;" d="M 150.101562 189.253906 C 147.648438 189.253906 145.519531 188.386719 143.78125 186.679688 C 142.03125 184.972656 141.140625 182.859375 141.140625 180.394531 C 141.140625 178.011719 142.027344 175.917969 143.773438 174.171875 C 145.519531 172.425781 147.648438 171.539062 150.101562 171.539062 C 152.488281 171.539062 154.570312 172.429688 156.285156 174.175781 C 157.992188 175.917969 158.855469 178.007812 158.855469 180.394531 C 158.855469 182.851562 157.988281 184.964844 156.277344 186.671875 C 154.566406 188.386719 152.488281 189.253906 150.101562 189.253906 Z M 150.101562 173.039062 C 148.03125 173.039062 146.308594 173.757812 144.835938 175.230469 C 143.359375 176.707031 142.640625 178.394531 142.640625 180.394531 C 142.640625 182.464844 143.359375 184.171875 144.828125 185.605469 C 146.300781 187.050781 148.027344 187.753906 150.101562 187.753906 C 152.101562 187.753906 153.777344 187.054688 155.21875 185.609375 C 156.65625 184.171875 157.355469 182.46875 157.355469 180.394531 C 157.355469 178.390625 156.652344 176.695312 155.210938 175.222656 C 153.769531 173.753906 152.101562 173.039062 150.101562 173.039062 Z M 153.789062 165.75 L 146.203125 165.75 L 146.167969 165.039062 C 145.828125 157.609375 145.398438 151.304688 144.890625 146.296875 C 144.382812 141.285156 143.867188 136.996094 143.359375 133.558594 C 142.84375 130.105469 142.402344 127.292969 142.027344 125.105469 C 141.644531 122.882812 141.453125 120.835938 141.453125 119.027344 C 141.453125 115.523438 142.285156 113.066406 143.9375 111.722656 C 145.539062 110.417969 147.683594 109.757812 150.3125 109.757812 C 152.882812 109.757812 154.964844 110.441406 156.503906 111.792969 C 158.070312 113.164062 158.863281 115.53125 158.863281 118.824219 C 158.863281 120.628906 158.6875 122.699219 158.34375 124.984375 C 158 127.246094 157.574219 130.101562 157.0625 133.558594 C 156.542969 137.050781 155.992188 141.339844 155.425781 146.308594 C 154.84375 151.335938 154.3125 157.640625 153.839844 165.050781 Z M 150.308594 111.253906 C 148.035156 111.253906 146.207031 111.804688 144.882812 112.882812 C 143.601562 113.929688 142.953125 115.992188 142.953125 119.023438 C 142.953125 120.746094 143.140625 122.710938 143.507812 124.851562 C 143.882812 127.042969 144.328125 129.871094 144.847656 133.335938 C 145.359375 136.800781 145.875 141.109375 146.386719 146.144531 C 146.878906 151.019531 147.300781 157.105469 147.636719 164.253906 L 152.386719 164.25 C 152.847656 157.117188 153.367188 151.023438 153.933594 146.132812 C 154.503906 141.148438 155.058594 136.84375 155.578125 133.332031 C 156.089844 129.871094 156.515625 127.015625 156.859375 124.757812 C 157.191406 122.546875 157.363281 120.550781 157.363281 118.820312 C 157.363281 115.984375 156.738281 113.996094 155.511719 112.914062 C 154.253906 111.8125 152.503906 111.253906 150.308594 111.253906 Z M 150.308594 111.253906 "/>
</g>
</svg>
